<svg xmlns="http://www.w3.org/2000/svg" width="42.363" height="43.647" viewBox="0 0 42.363 43.647">
  <g id="add-wishlist-icon" transform="translate(-175.318 -625)">
    <g id="Path_313" data-name="Path 313" transform="translate(175.318 625)" fill="rgba(255,255,255,0)">
      <path d="M 21.18167877197266 42.64709854125977 C 18.46046829223633 42.64709854125977 15.82090854644775 42.09809875488281 13.33630847930908 41.01535797119141 C 10.9339485168457 39.96845626831055 8.775718688964844 38.4690055847168 6.921548843383789 36.55864715576172 C 5.065358638763428 34.64621734619141 3.607898712158203 32.41886901855469 2.589638710021973 29.9384880065918 C 1.534828782081604 27.36906814575195 0.9999987483024597 24.63880729675293 0.9999987483024597 21.82354736328125 C 0.9999987483024597 19.00828742980957 1.534828782081604 16.27802658081055 2.589638710021973 13.70860767364502 C 3.607898712158203 11.22822761535645 5.065358638763428 9.000877380371094 6.921548843383789 7.088447570800781 C 8.775718688964844 5.17808723449707 10.9339485168457 3.678637266159058 13.33630847930908 2.631737470626831 C 15.82090854644775 1.548997402191162 18.46046829223633 0.9999973773956299 21.18167877197266 0.9999973773956299 C 23.90288925170898 0.9999973773956299 26.54244804382324 1.548997402191162 29.02704811096191 2.631737470626831 C 31.42940902709961 3.678637266159058 33.58763885498047 5.17808723449707 35.44181060791016 7.088447570800781 C 37.29800033569336 9.000877380371094 38.75545883178711 11.22822761535645 39.77371978759766 13.70860767364502 C 40.82852935791016 16.27802658081055 41.36335754394531 19.00828742980957 41.36335754394531 21.82354736328125 C 41.36335754394531 24.63880729675293 40.82852935791016 27.36906814575195 39.77371978759766 29.9384880065918 C 38.75545883178711 32.41886901855469 37.29800033569336 34.64621734619141 35.44181060791016 36.55864715576172 C 33.58763885498047 38.4690055847168 31.42940902709961 39.96845626831055 29.02704811096191 41.01535797119141 C 26.54244804382324 42.09809875488281 23.90288925170898 42.64709854125977 21.18167877197266 42.64709854125977 Z" stroke="none"/>
      <path d="M 21.18167877197266 1.999996185302734 C 16.06937789916992 1.999996185302734 11.25986862182617 4.054458618164062 7.639129638671875 7.784915924072266 C 5.872047424316406 9.605548858642578 4.484397888183594 11.72633743286133 3.514717102050781 14.08837699890137 C 2.509628295898438 16.53670692443848 2 19.13918685913086 2 21.82354736328125 C 2 24.50790786743164 2.509628295898438 27.11038780212402 3.514717102050781 29.55871772766113 C 4.484397888183594 31.92075729370117 5.872047424316406 34.04154968261719 7.639129638671875 35.86217880249023 C 11.25986862182617 39.59263610839844 16.06937789916992 41.64709854125977 21.18167877197266 41.64709854125977 C 26.29397964477539 41.64709854125977 31.10348892211914 39.59263610839844 34.72422790527344 35.86217880249023 C 36.49131011962891 34.04154968261719 37.87895965576172 31.92075729370117 38.84864044189453 29.55871772766113 C 39.85372924804688 27.11038780212402 40.36335754394531 24.50790786743164 40.36335754394531 21.82354736328125 C 40.36335754394531 19.13918685913086 39.85372924804688 16.53670692443848 38.84864044189453 14.08837699890137 C 37.87895965576172 11.72633743286133 36.49131011962891 9.605548858642578 34.72422790527344 7.784915924072266 C 31.10348892211914 4.054458618164062 26.29397964477539 1.999996185302734 21.18167877197266 1.999996185302734 M 21.18167877197266 -3.814697265625e-06 C 32.87999725341797 -3.814697265625e-06 42.36335754394531 9.770736694335938 42.36335754394531 21.82354736328125 C 42.36335754394531 33.87635803222656 32.87999725341797 43.64709854125977 21.18167877197266 43.64709854125977 C 9.483360290527344 43.64709854125977 0 33.87635803222656 0 21.82354736328125 C 0 9.770736694335938 9.483360290527344 -3.814697265625e-06 21.18167877197266 -3.814697265625e-06 Z" stroke="none" fill="#2f2e41"/>
    </g>
    <line id="Line_32" data-name="Line 32" x2="26.673" transform="translate(183.496 647.798)" fill="none" stroke="#2f2e41" stroke-width="2"/>
    <line id="Line_33" data-name="Line 33" x2="26.673" transform="translate(196.833 634.461) rotate(90)" fill="none" stroke="#2f2e41" stroke-width="2"/>
  </g>
</svg>
