<svg xmlns="http://www.w3.org/2000/svg" xmlns:xlink="http://www.w3.org/1999/xlink" width="500" zoomAndPan="magnify" viewBox="0 0 375 374.999991" height="500" preserveAspectRatio="xMidYMid meet" version="1.0"><defs><clipPath id="3cb748f7e3"><path d="M 14.542969 50.078125 L 360.292969 50.078125 L 360.292969 324.578125 L 14.542969 324.578125 Z M 14.542969 50.078125 " clip-rule="nonzero"/></clipPath></defs><g clip-path="url(#3cb748f7e3)"><path fill="#ffb300" d="M 232.675781 55.074219 C 232.347656 54.410156 231.949219 53.796875 231.46875 53.234375 L 229.480469 50.078125 L 148.910156 50.078125 C 148.085938 50.074219 147.273438 50.183594 146.476562 50.410156 C 145.683594 50.632812 144.933594 50.964844 144.230469 51.398438 C 143.527344 51.835938 142.898438 52.359375 142.34375 52.972656 C 141.789062 53.582031 141.328125 54.261719 140.964844 55 L 140.6875 55.5625 L 138.90625 58.457031 L 139.070312 58.804688 L 82.347656 172.882812 C 81.78125 174.035156 81.480469 175.25 81.445312 176.53125 C 81.40625 177.8125 81.636719 179.046875 82.136719 180.226562 L 83.71875 183.933594 L 223.117188 230.796875 L 256.894531 299.914062 L 64.777344 229.070312 C 64.265625 228.882812 63.742188 228.742188 63.207031 228.648438 C 62.667969 228.558594 62.128906 228.515625 61.582031 228.523438 C 61.039062 228.53125 60.496094 228.589844 59.964844 228.699219 C 59.429688 228.804688 58.910156 228.960938 58.40625 229.164062 C 57.898438 229.367188 57.417969 229.617188 56.957031 229.910156 C 56.496094 230.203125 56.070312 230.535156 55.671875 230.90625 C 55.273438 231.28125 54.914062 231.683594 54.589844 232.125 C 54.269531 232.5625 53.988281 233.027344 53.75 233.515625 L 15.5 311.804688 C 15.164062 312.484375 14.921875 313.191406 14.769531 313.929688 C 14.617188 314.667969 14.5625 315.414062 14.601562 316.164062 C 14.640625 316.917969 14.773438 317.652344 15 318.375 C 15.226562 319.09375 15.542969 319.769531 15.941406 320.410156 L 18.589844 324.585938 L 99.148438 324.585938 C 99.976562 324.582031 100.792969 324.46875 101.589844 324.238281 C 102.386719 324.007812 103.136719 323.671875 103.839844 323.234375 C 104.539062 322.792969 105.167969 322.261719 105.722656 321.644531 C 106.277344 321.027344 106.734375 320.347656 107.097656 319.601562 L 130.335938 272.035156 L 272.875 324.578125 L 350.121094 324.578125 C 350.871094 324.582031 351.613281 324.488281 352.34375 324.300781 C 353.070312 324.117188 353.765625 323.839844 354.421875 323.476562 C 355.082031 323.113281 355.683594 322.671875 356.230469 322.152344 C 356.773438 321.632812 357.246094 321.054688 357.640625 320.414062 L 360.246094 316.207031 Z M 93.683594 306.96875 L 37.480469 306.96875 L 66.121094 248.339844 L 113.75 265.902344 Z M 302.960938 239.054688 L 235.71875 216.457031 L 196.648438 136.425781 L 224.738281 78.910156 Z M 210.59375 67.667969 L 186.78125 116.355469 L 163.015625 67.6875 Z M 102.644531 171.683594 L 148.820312 78.765625 L 176.996094 136.425781 L 151.679688 188.207031 Z M 168.582031 193.851562 L 186.78125 156.496094 L 212.222656 208.570312 Z M 279.953125 306.96875 L 246.589844 238.671875 L 313.808594 261.269531 L 336.117188 306.929688 Z M 279.953125 306.96875 " fill-opacity="1" fill-rule="nonzero"/></g></svg>