<svg xmlns="http://www.w3.org/2000/svg" width="198.306" height="185.89" viewBox="0 0 198.306 185.89">
  <g id="Successful-purchase" transform="translate(-149.791 -148.518)">
    <path id="Path_349" data-name="Path 349" d="M530.08,463.445l8.847-24.8,4.191,1.95-9.309,24.048Z" transform="translate(-241.954 -184.587)" fill="#d7b47d"/>
    <path id="Path_350" data-name="Path 350" d="M553.8,445.255,549.639,444l-9.309,24.048H545.1Z" transform="translate(-248.476 -187.997)" fill="#2f2e41"/>
    <path id="Path_351" data-name="Path 351" d="M570.576,377.75,553.45,425.9h4.536l16.1-47.205Z" transform="translate(-256.823 -145.846)" fill="#d7b47d"/>
    <path id="Path_352" data-name="Path 352" d="M585.556,381.959l-3.539-1.619-16.1,47.205,4.161-.826Z" transform="translate(-264.757 -147.494)" fill="#2f2e41"/>
    <path id="Path_353" data-name="Path 353" d="M390.588,512.889l13.506-2.779s2.881,0,2.943,2.779a3.318,3.318,0,0,1-2.135,3.168l-13.43,2.4-22.641-.444a2.583,2.583,0,0,1-2.375-2.808,3.339,3.339,0,0,1,1.364-2.313Z" transform="translate(-137.845 -230.059)" fill="#2f2e41"/>
    <path id="Path_354" data-name="Path 354" d="M372.745,519.8h21.567l11.309-1.659a.895.895,0,0,1,1.026.884h0a.9.9,0,0,1-.764.888l-11.277,1.677H372.745a.9.9,0,0,1-.895-.895h0a.9.9,0,0,1,.895-.895Z" transform="translate(-141.283 -235.163)" fill="#fff"/>
    <path id="Path_355" data-name="Path 355" d="M386.517,498.053l13.928-2.619s2.837-.175,3.307,1.972c0,0,.855,3.026-2.859,3.365l-13.507,2.779H364.5a3.3,3.3,0,0,1-2.445-5.22,2.183,2.183,0,0,1,1.437-.917Z" transform="translate(-134.644 -220.719)" fill="#d7b47d"/>
    <path id="Path_356" data-name="Path 356" d="M390.623,503.867l12.6-2.255a1,1,0,0,1,1.175.858h0a1.008,1.008,0,0,1-.8,1.128l-12.623,2.459h-22.3a1.266,1.266,0,0,1-1.27-1.266h0a1.27,1.27,0,0,1,1.288-1.27Z" transform="translate(-138.451 -224.641)" fill="#fafafa"/>
    <path id="Path_357" data-name="Path 357" d="M461,291.954,456.11,306.8l1.368.306,5.02-14.714a.779.779,0,0,0-.618-.993h0a.779.779,0,0,0-.877.553Z" transform="translate(-194.892 -90.901)" fill="#2f2e41"/>
    <circle id="Ellipse_60" data-name="Ellipse 60" cx="8.599" cy="8.599" r="8.599" transform="translate(293.789 317.21)" fill="#bcbec0"/>
    <circle id="Ellipse_61" data-name="Ellipse 61" cx="6.526" cy="6.526" r="6.526" transform="translate(295.863 319.283)" fill="#fff"/>
    <circle id="Ellipse_62" data-name="Ellipse 62" cx="3.008" cy="3.008" r="3.008" transform="translate(299.089 323.099)" fill="#bcbec0"/>
    <circle id="Ellipse_63" data-name="Ellipse 63" cx="8.599" cy="8.599" r="8.599" transform="translate(226.813 317.21)" fill="#bcbec0"/>
    <circle id="Ellipse_64" data-name="Ellipse 64" cx="6.526" cy="6.526" r="6.526" transform="translate(228.887 319.283)" fill="#fff"/>
    <circle id="Ellipse_65" data-name="Ellipse 65" cx="3.008" cy="3.008" r="3.008" transform="translate(232.113 323.099)" fill="#bcbec0"/>
    <path id="Path_358" data-name="Path 358" d="M658.22,304.995l1.364.684s6.428-10.324,7.886-12.077c0,0,6.009-5.842,3.492-10.222a12.214,12.214,0,0,1-.99,4.427c-.7,1.6-1.5,2.444-3.339,4.773,0,0-.9,1.139-3.434,4.547A64.1,64.1,0,0,0,658.22,304.995Z" transform="translate(-323.482 -85.804)" fill="#2f2e41"/>
    <path id="Path_359" data-name="Path 359" d="M614.83,320.48l10.331-4.18.586,6.231s-5.886,4.452-10.051,5.878Z" transform="translate(-295.876 -106.749)" fill="#f9b499"/>
    <path id="Path_360" data-name="Path 360" d="M522.35,458.977l7.468,6.846,5.609-4.067-8.214-8.716Z" transform="translate(-237.036 -193.748)" fill="#f9b499"/>
    <path id="Path_361" data-name="Path 361" d="M354.318,461.894a1.342,1.342,0,0,0-.829,1.284,4.62,4.62,0,0,0,.64,2.31,2.812,2.812,0,0,0,1.717,1.182c.389.1.873.342.728.957a1.3,1.3,0,0,1-.382.644c-.633.6-2.354,2.775,4.678,3.739,0,0,5.631.68,8.683-1.022a22.189,22.189,0,0,1-3.954-8.8s-5.566-1.5-8.472-.884a9.568,9.568,0,0,0-2.808.586Z" transform="translate(-129.6 -198.914)" fill="#c59444"/>
    <path id="Path_362" data-name="Path 362" d="M354.318,461.894a1.342,1.342,0,0,0-.829,1.284,4.62,4.62,0,0,0,.64,2.31,2.812,2.812,0,0,0,1.717,1.182c.389.1.873.342.728.957a1.3,1.3,0,0,1-.382.644c-.633.6-2.354,2.775,4.678,3.739,0,0,5.631.68,8.683-1.022a22.189,22.189,0,0,1-3.954-8.8s-5.566-1.5-8.472-.884a9.568,9.568,0,0,0-2.808.586Z" transform="translate(-129.6 -198.914)" opacity="0.2"/>
    <path id="Path_403" data-name="Path 403" d="M152.173,326.991a25.438,25.438,0,0,1,.811-14.6S146.375,318.494,152.173,326.991Z" transform="translate(0 -104.262)" fill="#2f2e41"/>
    <path id="Path_404" data-name="Path 404" d="M156,278.989s2.157-9.174,10.789-13.219C166.778,265.77,156.549,266.581,156,278.989Z" transform="translate(-3.951 -74.6)" fill="#2f2e41"/>
    <path id="Path_405" data-name="Path 405" d="M355.38,366.8a8.464,8.464,0,0,0,0-2.5l-1.79,1.924Z" transform="translate(-129.665 -137.289)" fill="none" stroke="#ed1c24" stroke-miterlimit="10" stroke-width="0.5"/>
    <path id="Path_406" data-name="Path 406" d="M398.446,358.513l12.273,2.528,11.295-15.984,6.679-6.981a11.468,11.468,0,0,1,5.867-3.438c15.074-1.921,35.1-8.8,35.1-8.8l.942,8.639c-11.193,9.458-34.255,8.919-34.255,8.919-2.3,8.119-12,24.521-12,24.521-11.331,23.466-21.687,22.233-21.687,22.233C389.3,391.906,386.78,376.1,386.78,376.1a9.947,9.947,0,0,0,9.072-5.627S398.446,367.043,398.446,358.513Z" transform="translate(-150.782 -112.819)" fill="#2f2e41"/>
    <path id="Path_407" data-name="Path 407" d="M456.208,394.543s4.318-3.776,5.529-6.206c0,0-15.78-19.905-20.633-29.577,0,0-4.452-10.345-11.466-6.57,0,0-6.61.338-10.789,22.553l12.273,2.528L433.5,373.9S451.894,391.171,456.208,394.543Z" transform="translate(-171.186 -129.056)" fill="#2f2e41"/>
    <path id="Path_408" data-name="Path 408" d="M452.786,427.3s1.564-1.691,2.019-6.239a21.52,21.52,0,0,0-4-14.674,41.722,41.722,0,0,1-5.264-9.371s9.458,10.036,16.187,16.187c0,0-3.274,6.61-4.605,8.294A68.228,68.228,0,0,1,452.786,427.3Z" transform="translate(-188.167 -158.106)" opacity="0.2"/>
    <path id="Path_409" data-name="Path 409" d="M645.373,309.676l-2.143,2.335.586,6.231s1.528,1.342,2.434,0a48.882,48.882,0,0,0,1-6.981S645.965,309.032,645.373,309.676Z" transform="translate(-313.945 -102.46)" fill="#ccc"/>
    <path id="Path_410" data-name="Path 410" d="M646.343,291.843s-2.434-2.434-1.753.684c0,0,1.943.531,1.753,2.335l-.877,6.231s-.778,1.168-2.433,0l-1.033.768a13.782,13.782,0,0,0,5.918,2.641s5.627-9.2,8.927-12.83a14.092,14.092,0,0,0,1.586-2.066c1.044-1.71,2.612-4.7,2.23-6.719a.364.364,0,0,0-.593-.193C658.369,284.273,651.822,290.162,646.343,291.843Z" transform="translate(-313.162 -85.311)" fill="#c59444"/>
    <path id="Path_411" data-name="Path 411" d="M551.261,479.4l-2.772-2.4-5.609,4.067s.433,2.281,2.546,2.033C545.408,483.1,550.584,481.809,551.261,479.4Z" transform="translate(-250.098 -208.993)" fill="#ccc"/>
    <path id="Path_412" data-name="Path 412" d="M540.264,479.668s-.3,6.151.931,6.77l20.414,1.233s3.7-.185,4.685-1.295c0,0-10.855-4.038-14.245-6.773a1.637,1.637,0,0,1-.589-1.179l-.12-1.848a.455.455,0,0,0-.447-.436c-.538,0-1.386.386-1.3,2.717,0,0-.986,2.648-5.853,3.7,0,0-1.848.557-2.546-2.033Z" transform="translate(-248.414 -208.446)" fill="#c59444"/>
    <path id="Path_413" data-name="Path 413" d="M542.88,504.342V506.2l17.988.949a13.227,13.227,0,0,0,3.572-.266c1.6-.364,3.448-1.091,3.525-2.6,0,0-1.626,1.477-6.34,1.193Z" transform="translate(-250.098 -226.349)" fill="#2f2e41"/>
    <path id="Path_414" data-name="Path 414" d="M276.885,338.9l12.732,4.452a1.721,1.721,0,0,0,2.215-1.12h0a1.721,1.721,0,0,0-1.091-2.132l-12.732-4.463a1.728,1.728,0,0,0-2.15.928h0a1.724,1.724,0,0,0,1.026,2.335Z" transform="translate(-80.115 -118.992)" fill="none" stroke="#ed1c24" stroke-miterlimit="10" stroke-width="0.5"/>
    <path id="Path_415" data-name="Path 415" d="M565.172,606.7h9.709l-7.7,11.695a1.943,1.943,0,0,1-1.932.851h0a1.946,1.946,0,0,1-1.611-2.2Z" transform="translate(-263.289 -291.513)" fill="#d1d3d4"/>
    <rect id="Rectangle_203" data-name="Rectangle 203" width="5.391" height="2.714" transform="translate(237.264 312.474)" fill="#bcbec0"/>
    <path id="Path_416" data-name="Path 416" d="M380.816,607.37l-1.481,9.883a1.772,1.772,0,0,0,1.753,2.034h0a1.779,1.779,0,0,0,1.455-.775l7.464-10.957a.531.531,0,0,0-.44-.826h-8A.764.764,0,0,0,380.816,607.37Z" transform="translate(-146.033 -291.532)" fill="#d1d3d4"/>
    <path id="Path_417" data-name="Path 417" d="M382.776,442.749,374.5,400.818l.3-.058,8.392,42.506Z" transform="translate(-142.969 -160.486)" fill="#d1d3d4"/>
    <path id="Path_418" data-name="Path 418" d="M461.264,449.5l-6.024-44.244.306-.044,5.984,43.928,6.038-1.08.055.306Z" transform="translate(-194.338 -163.317)" fill="#d1d3d4"/>
    <rect id="Rectangle_204" data-name="Rectangle 204" width="0.309" height="40.88" transform="translate(276.158 242.891) rotate(-5.38)" fill="#d1d3d4"/>
    <rect id="Rectangle_205" data-name="Rectangle 205" width="0.309" height="37.769" transform="translate(290.385 243.735) rotate(-3.38)" fill="#d1d3d4"/>
    <rect id="Rectangle_206" data-name="Rectangle 206" width="0.309" height="34.343" transform="matrix(0.999, -0.052, 0.052, 0.999, 305.162, 244.577)" fill="#d1d3d4"/>
    <path id="Path_419" data-name="Path 419" d="M355.785,478.017l-.015-.309,13.114-.586L450.3,471.96l.018.309L368.9,477.431Z" transform="translate(-131.052 -205.786)" fill="#d1d3d4"/>
    <path id="Path_420" data-name="Path 420" d="M376.511,333.949s.018,6.766-1.251,9.512l2.455,1.091s2.041-7.443.658-13.263Z" transform="translate(-143.452 -116.286)" fill="#2f2e41"/>
    <path id="Path_421" data-name="Path 421" d="M386,322.568a71.969,71.969,0,0,1,8.1,5.82,12.83,12.83,0,0,1,3.79,5.871,42.582,42.582,0,0,1,1.422,6.642s1.684-8.021-2.183-12l-9.254-9.018Z" transform="translate(-150.285 -109.027)" fill="#2f2e41"/>
    <path id="Path_422" data-name="Path 422" d="M450.251,316.253c3.274-1.437,4.365-9.174,4.689-12.368a2.183,2.183,0,0,0-1.048-2.1h0l-1.455,3.638-.2-2.63h0a3.561,3.561,0,0,0-1.215,2.677l-.113,5.322-1,2.928-1.368-.306.491-1.488-.549-.12a3.449,3.449,0,0,1-.629-.16,1,1,0,0,1,.291-1.953,4.11,4.11,0,0,1,1.244.186h0a1.666,1.666,0,0,0-1.226-1.615,3.036,3.036,0,0,0-3.467,1.16c-1.742,2.837,1.633,6.693,1.633,6.693l-1.633,4.922,1.091-.393s2.565-1.324,4.231-.7Z" transform="translate(-187.312 -97.517)" fill="#f9b499"/>
    <path id="Path_423" data-name="Path 423" d="M278.72,445.61s4.285,6.839,12.852,3.19C291.572,448.8,282.638,456.094,278.72,445.61Z" transform="translate(-82.03 -189.021)" fill="#2f2e41"/>
    <path id="Path_424" data-name="Path 424" d="M297.048,241.051h0a1.331,1.331,0,1,0,.182,2.059,1.3,1.3,0,0,1-.924.364c4.671.818,6.384,5.82,6.384,5.82C302.144,242.739,297.048,241.051,297.048,241.051Zm.458.538a1.291,1.291,0,0,0-.407-.5,1.135,1.135,0,0,1,.407.5Zm-.255,1.5c.022-.018.036-.044.055-.062A.475.475,0,0,1,297.252,243.092Zm.364-.64h0s-.011,0-.011,0Zm-.058-.775.018.051a.4.4,0,0,1-.029-.051Z" transform="translate(-92.369 -58.728)" fill="#2f2e41"/>
    <path id="Path_425" data-name="Path 425" d="M300.7,258.759h0a.75.75,0,0,0-.4.138.734.734,0,1,0,1.15.728.728.728,0,0,1-.295.466c2.357-1.139,4.729.546,4.729.546A5.051,5.051,0,0,0,300.7,258.759Zm.364.095a.728.728,0,0,0-.364-.091.644.644,0,0,1,.386.08Zm.364.757Zm-.051-.4Zm-.276-.331.025.018Z" transform="translate(-95.561 -70.052)" fill="#2f2e41"/>
    <path id="Path_426" data-name="Path 426" d="M237.623,288.889c-2.881,21.418-22.47,26.918-26.987,27.922a11.254,11.254,0,0,0-2.837,1.019c-4.685,2.455-4.2,5.82-4.2,5.82-2.241-3.747,2.648-8.068,2.648-8.068-16.5,3.463-31.371-5.3-31.371-5.3-21.389-11.018-12.833-26.7-12.833-26.7,4.278-8.556,14.667-5.908,14.667-5.908,21.185,4.278,27.093-4.889,27.093-4.889-7.741,5.5-22.611-1.019-22.611-1.019-11.408-5.3-20.778,3.463-20.778,3.463,3.248-10.516,12.041-12.342,17.988-12.284a22.58,22.58,0,0,1,7.955,1.571c10.087,3.907,16.631,1.939,16.631,1.939-5.908.582-18.741-4.452-18.741-4.452-4.685-2.648-13.648-2.648-13.648-2.648,7.741-3.667,21.8,2.648,21.8,2.648,13.241,5.435,21.531-.189,23.928-2.212a8.73,8.73,0,0,1,1.983-1.28c13.161-6.042,18.916,1.862,18.916,1.862,6.722-5.3,6.911,7.945,6.911,7.945l-6.5,8.647c-3.008-.276-3.274-3.758-3.274-3.758,2.241-9.778-2.444-9.574-2.444-9.574,4.685,12.834-5.045,13.044-5.045,13.044" transform="translate(-6.721 -68.534)" fill="#2f2e41"/>
    <ellipse id="Ellipse_67" data-name="Ellipse 67" cx="3.75" cy="5.726" rx="3.75" ry="5.726" transform="matrix(0.921, -0.391, 0.391, 0.921, 210.534, 204.333)" fill="#f9b499"/>
    <path id="Path_427" data-name="Path 427" d="M339.569,335.149l-.989-8.9.618-.364s.833,2.183,4.332,3.434Z" transform="translate(-120.115 -112.844)" fill="#f4a790"/>
    <ellipse id="Ellipse_68" data-name="Ellipse 68" cx="8.759" cy="10.796" rx="8.759" ry="10.796" transform="translate(216.439 195.084)" fill="#f9b499"/>
    <path id="Path_428" data-name="Path 428" d="M331.92,223.668s15.383-14.947,22.4-26.682l6.733-30.614s-2.161-5.937-1.091-9.17l.866-7.9a.884.884,0,0,1,1.531-.5l1.419,1.568a4.445,4.445,0,0,1,1.153,3.037c-.033,2.83-.076,8.1.022,8.1s1.35-4.729,4.449-4.18v1.619s-2.546,1.346-2.965,5.395c0,0,0,1.211-1.753,2.965,0,0-1.753,23.739-4.991,32.506,0,0-11.193,19.825-21.04,29.941C338.671,229.761,333.27,227.444,331.92,223.668Z" transform="translate(-115.878)" fill="#f9b499"/>
    <path id="Path_429" data-name="Path 429" d="M333.75,284.635s1.455-8.679,8.537-8.137c0,0,5.318,10.815-4.976,13.747A8.765,8.765,0,0,0,333.75,284.635Z" transform="translate(-117.042 -81.41)" fill="#2f2e41"/>
    <path id="Path_430" data-name="Path 430" d="M362.644,289.68s-3.7-.273-2.637-5.093c0,0,1-7.734-2.786-8.061,0,0,7.392-.622,8.658,9.2Z" transform="translate(-131.974 -81.439)" fill="#2f2e41"/>
    <path id="Path_431" data-name="Path 431" d="M332.638,348.86a14.93,14.93,0,0,0,9.378,8.112s.531,8.756-4.729,9.993C337.276,366.964,331.252,362.09,332.638,348.86Z" transform="translate(-116.202 -127.465)" fill="#c59444"/>
    <path id="Path_432" data-name="Path 432" d="M389.93,371.7l13.15,5.165s-1.517,5.26-1.819,6.981l-6.271-.909A13.1,13.1,0,0,0,389.93,371.7Z" transform="translate(-152.786 -141.997)" fill="#f9b499"/>
    <path id="Path_433" data-name="Path 433" d="M348.745,397.86s4.514-4.471,3.769-10.575a9.458,9.458,0,0,0-2.223-4.893c-1.641-1.968-4.4-5.682-4.551-8.57,0,0,5.551-.975,4.642-12.488l1.455-1.7s10.978,4.092,12.291,6.115a16,16,0,0,1,2.732,9.509l5.456,4.754s.917,13.717-8.287,17.166a8.694,8.694,0,0,1-4.805.207C356.616,396.846,351.2,396.114,348.745,397.86Z" transform="translate(-124.67 -134.324)" fill="#c59444"/>
    <path id="Path_434" data-name="Path 434" d="M350.042,383.11s-1.124,4.874-4.292,5.646a10.361,10.361,0,0,0,1.775,4.729A16.271,16.271,0,0,0,350.042,383.11Z" transform="translate(-124.677 -149.256)" opacity="0.2"/>
    <path id="Path_435" data-name="Path 435" d="M421.646,450.544l-7.366-47.107.306-.047,7.366,47.1Z" transform="translate(-168.278 -162.159)" fill="#d1d3d4"/>
    <path id="Path_436" data-name="Path 436" d="M372.219,447.391h0l-22.346-.426a4.154,4.154,0,0,1-4-3.3l-9.7-45.5h.2L438,404.059v31.6l-.127.022ZM336.57,398.5l9.611,45.107a3.841,3.841,0,0,0,3.7,3.052l22.328.422,65.5-11.68V404.35Z" transform="translate(-118.582 -158.838)" fill="#d1d3d4"/>
    <rect id="Rectangle_207" data-name="Rectangle 207" width="97.961" height="0.309" transform="translate(221.299 255.847)" fill="#d1d3d4"/>
    <path id="Path_446" data-name="Path 446" d="M411.133,441.529H339.89a8.73,8.73,0,0,1-5.016-1.542,11.009,11.009,0,0,1-1.062-17.09,11.826,11.826,0,0,1,7.843-2.91h7.239L327.7,376c-3.474-5.678-6.271-18.686-6.271-18.686-1.091-5.038-3.9-4.285-3.9-4.285l.844-1.67c4.518.589,4.838,6.911,4.838,6.911-.153,2.506,4.449,13.881,4.449,13.881l23.281,47.915h22.51a1.062,1.062,0,0,1,1.062,1.062h0a1.062,1.062,0,0,1-1.062,1.062H340.88a9.127,9.127,0,0,0-5.486,1.782,8.524,8.524,0,0,0-3.365,7.926,8.949,8.949,0,0,0,5.093,7.177,10.415,10.415,0,0,0,4.565,1.018h75.466a10.367,10.367,0,0,1,10.367,10.367v1.721a.757.757,0,0,1-.76.757h0a.757.757,0,0,1-.757-.757v-.862a9.207,9.207,0,0,0-9.207-9.2h0V444.3h-5.715Z" transform="translate(-106.722 -129.056)" fill="#bcbec0"/>
    <rect id="Rectangle_208" data-name="Rectangle 208" width="10.436" height="2.499" rx="1.25" transform="translate(202.278 221.962)" fill="#bcbec0"/>
  </g>
</svg>
