<svg id="Component_36_1" data-name="Component 36 – 1" xmlns="http://www.w3.org/2000/svg" width="256.726" height="202.33" viewBox="0 0 256.726 202.33">
  <path id="Path_311" data-name="Path 311" d="M238.032,123.025s51.87,14.387,29.618-2.981c0,0-14.28-8.281-16.523-24.567-.779-5.649,1.424-18.318,4.6-23.841,2.772-4.825,11.51-9.839,19.256-13.34,3.923-1.721,3.952-25.248,17.353-24.682,3.242.137,15.463,1.129,21,4.344,11.062,6.424,19.51,13.143,27.949,15.077,7.263,1.664,15-5.291,21.894-4.178,29.69,4.8,25.5,15.561,28.623,16.119,2.32.43,11.271-2.147,17.59-.207,8.8,2.7,15.978,10.3,21.454,11.655,20.043,4.958,30.362,11.723,20.792,29.769,0,0,20.832,24.633,4.7,42.449-4.672,5.162-9.032,11.917-22.5,15.045-4.108.955-10.917.827-17.172,1.072-6.1.239-21.036,5.938-28.841,5.528-21.553-2.152-38.126-15.04-54.967-18.927C269.168,136.661,237.148,123.209,238.032,123.025Z" transform="translate(-235.987 118.79) rotate(-19)" fill="#eddfc7" opacity="0.7"/>
</svg>
