<svg xmlns="http://www.w3.org/2000/svg" width="139.51" height="158.516" viewBox="0 0 139.51 158.516">
  <g id="Wishes" transform="translate(-171.008 -43.89)">
    <path id="Path_255" data-name="Path 255" d="M250.433,231.448a76.735,76.735,0,0,0,14.445-4.243,17.156,17.156,0,0,1,9.174-1.425c8.236,1.065,7.4,7.242,7.4,7.242-.354,4.435-1.348,7.133-2.413,8.774a4.93,4.93,0,0,1-5.167,2.091c-9.64-2.014-8.841,5.112-8.841,5.112,0,9.544-18.2-1.553-18.2-1.553-9.323-3.106-19.088-3.551-20.2,7.767s-5.9,8.145-5.9,8.145l-2.68-.7.384,2.44a114.582,114.582,0,0,0,26.879-.714s10.029-.554,35.24.4c0,0,34.569,4.283,29.034-13.952,0,0-.855-3.13-8.489-6.965a8.524,8.524,0,0,1-3.934-3.971c-1.018-2.184-1.279-5.258,1.971-8.659a30.731,30.731,0,0,0,3.218-3.947c3.966-5.86,12.029-19.5,5.982-26.176a8.364,8.364,0,0,0-3.231-2.147c-5.367-2.038-31.846-12.836-22.7-24.045,0,0,8.707-14.735-2.973-27.67a13.606,13.606,0,0,0-6.582-4.051c-5.745-1.54-16.621-2.067-25,11.653L225,165.776s-7.4,12.519-16.962,4.928a15.841,15.841,0,0,1-5.135-7.642c-1.239-3.881-5.474-10.513-19.818-5.668,0,0-16.515,6.859-10.921,22.862,0,0,2.794,10.162,16.765,14.482,0,0,6.606.506,1.526,5.594,0,0-17.021,8.635-2.032,16.765,0,0,9.144,8.385,19.053-7.365,0,0,11.938-17.021,24.386-8.129,0,0,1.923,1.494-1.67,6.244a22.841,22.841,0,0,0-2.965,5.112C224.239,220.227,221.309,235.231,250.433,231.448Z" transform="translate(0 -72.298)" fill="#c59444"/>
    <path id="Path_256" data-name="Path 256" d="M250.433,231.448a76.735,76.735,0,0,0,14.445-4.243,17.156,17.156,0,0,1,9.174-1.425c8.236,1.065,7.4,7.242,7.4,7.242-.354,4.435-1.348,7.133-2.413,8.774a4.93,4.93,0,0,1-5.167,2.091c-9.64-2.014-8.841,5.112-8.841,5.112,0,9.544-18.2-1.553-18.2-1.553-9.323-3.106-19.088-3.551-20.2,7.767s-5.9,8.145-5.9,8.145l-2.68-.7.384,2.44a114.582,114.582,0,0,0,26.879-.714s10.029-.554,35.24.4c0,0,34.569,4.283,29.034-13.952,0,0-.855-3.13-8.489-6.965a8.524,8.524,0,0,1-3.934-3.971c-1.018-2.184-1.279-5.258,1.971-8.659a30.731,30.731,0,0,0,3.218-3.947c3.966-5.86,12.029-19.5,5.982-26.176a8.364,8.364,0,0,0-3.231-2.147c-5.367-2.038-31.846-12.836-22.7-24.045,0,0,8.707-14.735-2.973-27.67a13.606,13.606,0,0,0-6.582-4.051c-5.745-1.54-16.621-2.067-25,11.653L225,165.776s-7.4,12.519-16.962,4.928a15.841,15.841,0,0,1-5.135-7.642c-1.239-3.881-5.474-10.513-19.818-5.668,0,0-16.515,6.859-10.921,22.862,0,0,2.794,10.162,16.765,14.482,0,0,6.606.506,1.526,5.594,0,0-17.021,8.635-2.032,16.765,0,0,9.144,8.385,19.053-7.365,0,0,11.938-17.021,24.386-8.129,0,0,1.923,1.494-1.67,6.244a22.841,22.841,0,0,0-2.965,5.112C224.239,220.227,221.309,235.231,250.433,231.448Z" transform="translate(0 -72.298)" fill="#fff" opacity="0.7"/>
    <path id="Path_257" data-name="Path 257" d="M342.217,372.09s8.489,16.344-17.545,13.965c0,0-19.178-3.78-19.034,10.777,0,0-.6,7.573,6.7,10.694a13.393,13.393,0,0,0,8.044.717,51.612,51.612,0,0,0,9.935-3.284,7.7,7.7,0,0,1,1.713-.517c1.921-.344,5.924-.722,7.477,1.654a1.963,1.963,0,0,1-.533,2.664c-1.042.711-3.007,1.444-6.6,1.215,0,0-11.952-1.438-11.595,2.845,0,0-.117,2.259,4.4,2.131,0,0,2.855-1.065,1.548,2.024a3.693,3.693,0,0,0-.12,2.5s.381-1.9,1.137-2.4a3.552,3.552,0,0,0,.8-.655c.78-.927,1.958-2.728-.5-2.9,0,0-5.945.237-4.637-1.308,0,0,.237-1.785,7.136.117,0,0,11.416,3.569,12.01-4.28,0,0,1.39-6.734-9.3-6.22a14.884,14.884,0,0,0-3.045.477c-4.275,1.121-18.832,4.414-19.642-2.584,0,0-.322-7.288,11.55-5.684a13.191,13.191,0,0,1,3.242.876c6.148,2.509,33.663,11.454,45.7-23.5l-2.339-5.466-6.819-3.013Z" transform="translate(-98.76 -234.059)" fill="#2f2e41"/>
    <path id="Path_258" data-name="Path 258" d="M366.388,242.95a12.334,12.334,0,0,1-7.421,2.93s-9.5-.6-9.873,7.207a20.109,20.109,0,0,0,.434,5.129,4.773,4.773,0,0,0,.972,2.23c.164.233.531.763.849,1.325.23.415.9,1.113,1.324,1.881.08.158.322.328.653.8l.3.333.2.256c1.263.826,1.766,1.811,3.765,3.346.936.394,2.422,2.114,3.257,2.693a33.853,33.853,0,0,1,10.591,11.9s6.88,4.278,16.272.466c0,0,7.81-4.928,12.554-1.116,0,0,2.616-7.135-1.659-18.759a16.75,16.75,0,0,0,6.214-15.831,13.047,13.047,0,0,0-5.484-4.366,22.322,22.322,0,0,0-3.776-1.121,5.541,5.541,0,0,0-1,0,4.4,4.4,0,0,0-1.25.125s-8.909,1.4-12.969-.9l-7.41,2.445Z" transform="translate(-127.975 -144.959)" fill="#c59444"/>
    <path id="Path_259" data-name="Path 259" d="M405.321,297.42s-10.334,3.564-8.969,12.835c-.021-.116-.237-1.273-.2-1.075,0,0,11.49,2.734,18.743-1.914a8.495,8.495,0,0,0-2.551-8.06,9.373,9.373,0,0,1-3.423.523C407.789,299.627,406.509,298.36,405.321,297.42Z" transform="translate(-165.199 -185.999)" fill="#f9b499"/>
    <path id="Path_260" data-name="Path 260" d="M482.314,266.683c.03,7.53-5.84,12.014-5.84,12.014a13.056,13.056,0,0,1-2.956,1.72,38.482,38.482,0,0,1-9.138,2.427,96.864,96.864,0,0,1-14.089,1.026c3.467-1.1,8.149-4.579,12.062-8.148,1.849-1.684,3.569-3.379,4.994-4.835,2.33-2.383,3.868-4.126,3.868-4.126,2.432-2.832,4.808-3.759,6.719-3.9a4.221,4.221,0,0,1,3.079,1.01,3.734,3.734,0,0,1,1.3,2.817Z" transform="translate(-205.178 -160.633)" fill="#f7a48b"/>
    <path id="Path_261" data-name="Path 261" d="M505.893,303.784a38.875,38.875,0,0,1-9.056,2.348c2.594-3.676-2.147-6.759-2.147-6.759l.138-.132,4.938-4.681h0C506.972,296.023,506.018,303.032,505.893,303.784Z" transform="translate(-237.465 -183.901)" fill="#2f2e41"/>
    <path id="Path_262" data-name="Path 262" d="M418.925,242.958a9.454,9.454,0,0,1-1.865,1.311s4.845,7.642,12.786,6.294c0,0,5.391-.871,4.994-8.257a11.373,11.373,0,0,1-1.971-.815s.836,5.594-4.6,6.784C428.263,248.285,423.474,249.585,418.925,242.958Z" transform="translate(-180.512 -144.967)" fill="#fff" opacity="0.3"/>
    <path id="Path_263" data-name="Path 263" d="M409.94,279.853a6.659,6.659,0,0,0,4.832,2.65,5.772,5.772,0,0,1-3.116-4.363,2.986,2.986,0,0,0,.266,2.648S411.24,280.892,409.94,279.853Z" transform="translate(-175.289 -171.854)" fill="#231f20" opacity="0.3"/>
    <path id="Path_264" data-name="Path 264" d="M521.778,267.42a9.2,9.2,0,0,0-.533.988,7.081,7.081,0,0,0-.413,1.031,5.324,5.324,0,0,0-.213,1.081,6.866,6.866,0,0,0,0,1.121,3.33,3.33,0,0,1-.21-1.132,3.841,3.841,0,0,1,.162-1.151A4.239,4.239,0,0,1,521.778,267.42Z" transform="translate(-256.333 -163.99)" fill="#231f20" opacity="0.3"/>
    <path id="Path_265" data-name="Path 265" d="M244.394,83.573a11.72,11.72,0,0,1-.32-3,4.555,4.555,0,0,1,.679-2.365c.189-.293.3-.812-.176-1.675a4.2,4.2,0,0,1-.461-2.712v-.056a4.922,4.922,0,0,1,1.145-2.323,3.171,3.171,0,0,0,.554-3.689,4.142,4.142,0,0,0-1.721-1.683,8.6,8.6,0,0,0-3.828-.916s-3.026.266-.733-4.219c0,0,5.99-7.242,2.019-11.741a5.86,5.86,0,0,0-7.541-.962,12.124,12.124,0,0,0-2.733,2.522,3.729,3.729,0,0,1-2.874,1.183,4.632,4.632,0,0,0-2.131.4c-1.971.916-5.146,3.463-3.729,10.159,0,0,1.377,10.271,13.206,8.713,0,0,2.176-.242,2.448,1.769a4.051,4.051,0,0,0,.551,1.641,3.668,3.668,0,0,0,1.6,1.4,1.065,1.065,0,0,1,.621,1.033A6.947,6.947,0,0,0,244.394,83.573Z" transform="translate(-37.552 -2.483)" fill="#c59444"/>
    <path id="Path_266" data-name="Path 266" d="M244.394,83.573a11.72,11.72,0,0,1-.32-3,4.555,4.555,0,0,1,.679-2.365c.189-.293.3-.812-.176-1.675a4.2,4.2,0,0,1-.461-2.712v-.056a4.922,4.922,0,0,1,1.145-2.323,3.171,3.171,0,0,0,.554-3.689,4.142,4.142,0,0,0-1.721-1.683,8.6,8.6,0,0,0-3.828-.916s-3.026.266-.733-4.219c0,0,5.99-7.242,2.019-11.741a5.86,5.86,0,0,0-7.541-.962,12.124,12.124,0,0,0-2.733,2.522,3.729,3.729,0,0,1-2.874,1.183,4.632,4.632,0,0,0-2.131.4c-1.971.916-5.146,3.463-3.729,10.159,0,0,1.377,10.271,13.206,8.713,0,0,2.176-.242,2.448,1.769a4.051,4.051,0,0,0,.551,1.641,3.668,3.668,0,0,0,1.6,1.4,1.065,1.065,0,0,1,.621,1.033A6.947,6.947,0,0,0,244.394,83.573Z" transform="translate(-37.552 -2.483)" fill="#fff" opacity="0.7"/>
    <g id="freepik--magic-lamp--inject-163" transform="translate(195.036 177.246)">
      <path id="Path_267" data-name="Path 267" d="M309.013,613.471a2.773,2.773,0,0,1-.4,2.091c-.943,1.289-3.071,1.2-4.019,2.5a.858.858,0,0,0-.192.764c.115.338.533.463.866.557.693.157,1.388.317,2.091.429a21.841,21.841,0,0,0,6.358-.045,12.2,12.2,0,0,0,2.752-.629.424.424,0,0,0,.245-.171.386.386,0,0,0-.024-.325,2.293,2.293,0,0,0-1.353-1.108c-.554-.218-1.161-.325-1.71-.557a3.862,3.862,0,0,1-2.221-3.846" transform="translate(-292.878 -594.861)" fill="#c59444"/>
      <path id="Path_268" data-name="Path 268" d="M293.322,558.335c-.847-.847-3.263-.676-4.238-.466s-4.366.932-5.594,1.188-2.373-1.066-2.373-1.066a2.111,2.111,0,0,0,.266-.634c.083-.381-.8-1.388-.8-1.388a5.248,5.248,0,0,0,.509-1.145c.17-.594-1.271-.762-1.271-.762s-.107-.514-.383-1.91-1-1.6-1.761-1.225c-.858.415-1.036,3.263-1.036,3.263s-1.108.293-1.188.466.466,1.015.682,1.313-.466.634-.85,1.065a.458.458,0,0,0-.067.65.315.315,0,0,0,.067.067,2.644,2.644,0,0,1-2.245,1.316c-1.737.168-2.536-.077-5.17-2.032a9.873,9.873,0,0,0-.967-.658,4.2,4.2,0,0,0-3.753-.378,3.22,3.22,0,0,0-1.891,3.577c.554,3.135,3.729,2.714,4.408,2.5a7.847,7.847,0,0,0,1.942-1.526s.21.762.764.679.506-.8.506-.8l1.486,2.2c1.865,2.5,4.994,4.96,8.095,5.127s8.257-4.579,8.473-4.832a13.9,13.9,0,0,1,4.832-3.092c2.2-.634,3.433.677,3.561-.266S293.322,558.335,293.322,558.335Zm-26.085,1.6a.834.834,0,1,0-1.065.509.761.761,0,0,0,.229.045,2.357,2.357,0,0,1-4.115-1.065,2.3,2.3,0,0,1,1.486-2.517,2.961,2.961,0,0,1,1.958.123,4.528,4.528,0,0,1,2.533,2.461,1.087,1.087,0,0,0-1.02.442Z" transform="translate(-261.213 -549.107)" fill="#c59444"/>
      <path id="Path_269" data-name="Path 269" d="M322.09,544.573a1.148,1.148,0,0,0-.906.831,1.012,1.012,0,0,0,.482,1.031,1.041,1.041,0,0,0,1.137-.1,1.065,1.065,0,0,0,.346-1.092.93.93,0,0,0-1.065-.687" transform="translate(-305.201 -544.545)" fill="#202504"/>
      <path id="Path_270" data-name="Path 270" d="M321.944,611.385a1.3,1.3,0,0,1-.173.141,3.65,3.65,0,0,1-.533.3,4.881,4.881,0,0,1-.831.309,5.064,5.064,0,0,1-2.179.083,4.6,4.6,0,0,1-.86-.242,3.125,3.125,0,0,1-.557-.266.7.7,0,0,1-.181-.123c.013-.024.266.128.759.266a5.41,5.41,0,0,0,3.8-.149C321.667,611.548,321.925,611.364,321.944,611.385Z" transform="translate(-301.869 -593.58)" fill="#202504"/>
      <path id="Path_271" data-name="Path 271" d="M317.2,633.265a2.919,2.919,0,0,1-.447.171c-.147.048-.325.106-.533.165s-.45.131-.719.189a17.18,17.18,0,0,1-1.907.346,18.1,18.1,0,0,1-4.739-.035,17.82,17.82,0,0,1-1.9-.376c-.266-.061-.5-.139-.714-.2s-.389-.12-.533-.176a3.237,3.237,0,0,1-.447-.171,2.834,2.834,0,0,1,.463.12c.146.043.328.1.533.149s.45.125.719.181c.533.122,1.175.24,1.894.338a21.065,21.065,0,0,0,2.355.16,20.378,20.378,0,0,0,2.352-.125c.719-.085,1.366-.195,1.9-.312.266-.051.506-.117.722-.168s.394-.1.554-.144A3.711,3.711,0,0,1,317.2,633.265Z" transform="translate(-293.528 -609.571)" fill="#202504"/>
      <path id="Path_272" data-name="Path 272" d="M322.486,614a4.2,4.2,0,0,1-.293,2.664c-.043,0,.144-.591.221-1.332S322.435,614,322.486,614Z" transform="translate(-305.945 -595.5)" fill="#202504"/>
      <path id="Path_273" data-name="Path 273" d="M326.811,617.1a5.143,5.143,0,0,1-.266-2.552c.04,0,.043.578.123,1.276A10.464,10.464,0,0,1,326.811,617.1Z" transform="translate(-309.102 -595.903)" fill="#202504"/>
      <path id="Path_274" data-name="Path 274" d="M329.624,616.828a3.262,3.262,0,0,1-.485-1.3,3.2,3.2,0,0,1-.035-1.388c.043,0,.029.621.176,1.359S329.664,616.8,329.624,616.828Z" transform="translate(-310.977 -595.602)" fill="#202504"/>
      <path id="Path_275" data-name="Path 275" d="M321.864,562.782a8.7,8.7,0,0,0-3.8.043,1.708,1.708,0,0,1,.533-.2,5.61,5.61,0,0,1,1.364-.178,5.734,5.734,0,0,1,1.364.146A1.7,1.7,0,0,1,321.864,562.782Z" transform="translate(-302.918 -557.679)" fill="#202504"/>
      <path id="Path_276" data-name="Path 276" d="M321.512,569.964a2.912,2.912,0,0,1-.642.125c-.4.056-.962.115-1.58.144a13.562,13.562,0,0,1-1.585,0,2.593,2.593,0,0,1-.655-.061,3.364,3.364,0,0,1,.655-.04c.4,0,.964-.027,1.58-.056s1.172-.072,1.574-.1A2.819,2.819,0,0,1,321.512,569.964Z" transform="translate(-302.177 -563.184)" fill="#202504"/>
      <path id="Path_277" data-name="Path 277" d="M319.862,577.12a.656.656,0,0,1-.192.16,3.251,3.251,0,0,1-.607.328,4.922,4.922,0,0,1-2.235.317,9.871,9.871,0,0,1-2.221-.466,5.17,5.17,0,0,1-.876-.322,7.193,7.193,0,0,1,.908.226,11.982,11.982,0,0,0,2.192.418,5.326,5.326,0,0,0,2.192-.266C319.308,577.389,319.59,577.261,319.862,577.12Z" transform="translate(-299.741 -568.443)" fill="#202504"/>
      <path id="Path_278" data-name="Path 278" d="M306.334,579a2.255,2.255,0,0,1-.477.554,4.854,4.854,0,0,1-3.183,1.263,2.223,2.223,0,0,1-.714-.069c0-.024.266,0,.711-.032a5.66,5.66,0,0,0,1.665-.375,5.744,5.744,0,0,0,1.465-.86A5.081,5.081,0,0,1,306.334,579Z" transform="translate(-291.107 -569.822)" fill="#202504"/>
      <path id="Path_279" data-name="Path 279" d="M314.937,580.29a1.69,1.69,0,0,1-.181.533A6.175,6.175,0,0,1,313.094,583a1.748,1.748,0,0,1-.474.32,15.183,15.183,0,0,0,1.311-1.4,16.128,16.128,0,0,0,1.007-1.627Z" transform="translate(-298.927 -570.769)" fill="#202504"/>
      <path id="Path_280" data-name="Path 280" d="M324.705,583.954c-.043,0,.176-.815.3-1.835s.115-1.849.16-1.849a2.151,2.151,0,0,1,.056.554,9.56,9.56,0,0,1-.069,1.332,9.8,9.8,0,0,1-.253,1.3A1.726,1.726,0,0,1,324.705,583.954Z" transform="translate(-307.789 -570.754)" fill="#202504"/>
      <path id="Path_281" data-name="Path 281" d="M332.235,583.152a11.753,11.753,0,0,1-1.345-3.463c.04-.013.3.778.671,1.726S332.275,583.134,332.235,583.152Z" transform="translate(-312.331 -570.328)" fill="#202504"/>
      <path id="Path_282" data-name="Path 282" d="M336.539,580.476a1.118,1.118,0,0,1-.533.048,2.424,2.424,0,0,1-2.035-1.42,1.138,1.138,0,0,1-.141-.514c.024,0,.08.189.232.469a2.629,2.629,0,0,0,1.955,1.364C336.318,580.471,336.539,580.452,336.539,580.476Z" transform="translate(-314.487 -569.521)" fill="#202504"/>
      <path id="Path_283" data-name="Path 283" d="M318.588,580.171h-.067l-.186-.053a5.779,5.779,0,0,0-.738-.136,6.163,6.163,0,0,0-2.7.4,15.313,15.313,0,0,0-3.535,2.027c-.639.434-1.308.9-2.046,1.31a11.037,11.037,0,0,1-2.419.985,11.186,11.186,0,0,1-5.01.205,10.937,10.937,0,0,1-5.937-3.292c-.221-.242-.386-.437-.49-.575l-.117-.155-.037-.056a.377.377,0,0,1,.051.048c.029.032.077.085.128.146a7.445,7.445,0,0,0,.506.554,11.516,11.516,0,0,0,2.144,1.726,10.972,10.972,0,0,0,3.78,1.476,11.114,11.114,0,0,0,4.944-.216,10.946,10.946,0,0,0,2.4-.97,24.133,24.133,0,0,0,2.038-1.3c.634-.434,1.249-.847,1.841-1.2a10.042,10.042,0,0,1,1.739-.815,6.022,6.022,0,0,1,2.725-.368A3.464,3.464,0,0,1,318.588,580.171Z" transform="translate(-286.228 -570.479)" fill="#202504"/>
      <path id="Path_284" data-name="Path 284" d="M315.665,572.437c.024.037-.184.2-.373.461s-.29.5-.33.493,0-.3.213-.578S315.647,572.4,315.665,572.437Z" transform="translate(-300.635 -565.004)" fill="#fff"/>
      <path id="Path_285" data-name="Path 285" d="M316.437,566.7c-.013.032-.3-.061-.554-.322s-.33-.554-.3-.554.17.224.4.463S316.459,566.667,316.437,566.7Z" transform="translate(-301.098 -560.153)" fill="#fff"/>
      <path id="Path_286" data-name="Path 286" d="M320.468,555.993a3.671,3.671,0,0,1,.357-2.323c.043.016-.128.517-.224,1.153S320.508,555.99,320.468,555.993Z" transform="translate(-304.645 -551.239)" fill="#fff"/>
      <path id="Path_287" data-name="Path 287" d="M322.335,546.829c0,.016-.1-.016-.2-.128a.714.714,0,0,1,.064-1.012l.043-.035c.123-.091.216-.1.224-.083s-.064.064-.154.16a.8.8,0,0,0-.208.437.77.77,0,0,0,.115.471C322.282,546.746,322.346,546.81,322.335,546.829Z" transform="translate(-305.774 -545.293)" fill="#fff"/>
      <path id="Path_288" data-name="Path 288" d="M300.15,578.907a.661.661,0,0,1-.138.173,3.589,3.589,0,0,1-.461.389,4.123,4.123,0,0,1-3.806.533,3.333,3.333,0,0,1-.557-.248c-.12-.072-.184-.12-.178-.128a5.932,5.932,0,0,0,.759.266,4.382,4.382,0,0,0,3.729-.511C299.916,579.112,300.134,578.888,300.15,578.907Z" transform="translate(-286.007 -569.753)" fill="#fff"/>
      <path id="Path_289" data-name="Path 289" d="M262.387,575.1a1.626,1.626,0,0,1-.266-.663,2.964,2.964,0,0,1,1.18-3.052,1.651,1.651,0,0,1,.639-.314c0,.021-.242.13-.578.4a3.143,3.143,0,0,0-.978,1.332,3.2,3.2,0,0,0-.165,1.638C262.3,574.842,262.411,575.089,262.387,575.1Z" transform="translate(-261.828 -564.005)" fill="#fff"/>
      <path id="Path_290" data-name="Path 290" d="M265.334,588.965c-.016.037-.266-.051-.514-.213s-.439-.344-.416-.375.24.093.49.266S265.361,588.928,265.334,588.965Z" transform="translate(-263.553 -576.697)" fill="#fff"/>
      <path id="Path_291" data-name="Path 291" d="M305.2,595.227a1.325,1.325,0,0,1-.115.069c-.077.04-.2.093-.36.157a5.879,5.879,0,0,1-1.388.344,6.909,6.909,0,0,1-2.131-.075,8.817,8.817,0,0,1-2.461-.876,11.261,11.261,0,0,1-3.612-3.037,9.679,9.679,0,0,1-.8-1.191,3.9,3.9,0,0,1-.186-.344,1.054,1.054,0,0,1-.056-.125,4.2,4.2,0,0,1,.266.44,11.956,11.956,0,0,0,4.44,4.129,8.978,8.978,0,0,0,2.419.874,7.08,7.08,0,0,0,2.094.1,6.5,6.5,0,0,0,1.388-.3C305.024,595.294,305.192,595.214,305.2,595.227Z" transform="translate(-285.333 -578.002)" fill="#fff"/>
      <path id="Path_292" data-name="Path 292" d="M310.916,622.51a.42.42,0,0,1-.059.178,1.739,1.739,0,0,1-.266.416,3.933,3.933,0,0,1-1.406.879,7.76,7.76,0,0,0-1.468.709c-.341.232-.5.445-.517.426a1.372,1.372,0,0,1,.456-.509,6.248,6.248,0,0,1,1.476-.759,4.417,4.417,0,0,0,1.388-.815A5.212,5.212,0,0,0,310.916,622.51Z" transform="translate(-294.951 -601.743)" fill="#fff"/>
    </g>
    <path id="Path_293" data-name="Path 293" d="M415.57,214.7l2.4,3.94s.8,1.02-.146,3.647c0,0,3.649,6.126,9.339,5.327,0,0,5.106-.583,4.6-6.784a6.071,6.071,0,0,1-1.313-2.261l-4.89-3.868-5.607-1.385Z" transform="translate(-179.419 -124.293)" fill="#f9b499"/>
    <path id="Path_294" data-name="Path 294" d="M451.45,233.32s3.94,2.48,6.64,1.971a6.5,6.5,0,0,1-1.313-2.261S455.39,233.978,451.45,233.32Z" transform="translate(-205.742 -138.76)" fill="#f7a48b"/>
    <path id="Path_295" data-name="Path 295" d="M390.28,69.017s.429-1.572,1.359-1.787c0,0-.144,3.215,1,4.217a13.16,13.16,0,0,1,2.216,4.795l-2.573-.57Z" transform="translate(-160.866 -17.123)" fill="#202504"/>
    <path id="Path_296" data-name="Path 296" d="M390.28,69.017s.429-1.572,1.359-1.787c0,0-.144,3.215,1,4.217a13.16,13.16,0,0,1,2.216,4.795l-2.573-.57Z" transform="translate(-160.866 -17.123)" fill="#2f2e41" opacity="0.3"/>
    <ellipse id="Ellipse_47" data-name="Ellipse 47" cx="9.834" cy="15.26" rx="9.834" ry="15.26" transform="translate(224.952 78.175) rotate(-45)" fill="#f9b499"/>
    <path id="Path_297" data-name="Path 297" d="M400.616,177.31s-6.5,12.542-5.217,15.463A10.14,10.14,0,0,0,400,199.9c.4.244,7.845-.229,8.416.607-.145-3.579-3.489-14.722-5.484-17.382A10.113,10.113,0,0,1,400.616,177.31Z" transform="translate(-167.621 -98.503)" fill="#2f2e41"/>
    <path id="Path_300" data-name="Path 300" d="M358.946,144.836s-.474,5.551-8.79,3.252a11.718,11.718,0,0,1-6.579-6.342s-7.136-3.806-3.332-13.638c0,0,4.225-10.039,14.482-12.8a18.6,18.6,0,0,1,16.586,3.58c1.96,1.6,3.287,3.6,2.232,5.735,0,0,1.065.951.511,3.487a22.99,22.99,0,0,0-2.328-2.267,1.231,1.231,0,0,0-.549-.25,15.678,15.678,0,0,0-14.839,5.769s-2.062,2.776-1.268,4.36Z" transform="translate(-123.339 -51.93)" fill="#c59444"/>
    <path id="Path_301" data-name="Path 301" d="M353.913,182.24a10.291,10.291,0,0,1-.655-3.183,13.545,13.545,0,0,1,.192-3.263,13.74,13.74,0,0,1,.954-3.127,13.278,13.278,0,0,1,.738-1.452,7.693,7.693,0,0,1,.442-.685c.154-.224.312-.442.469-.661-.109.248-.221.5-.336.738a7.869,7.869,0,0,0-.333.73c-.2.5-.418.98-.575,1.489-.083.253-.181.5-.266.754l-.213.764c-.08.25-.128.511-.186.77a7.72,7.72,0,0,0-.157.778l-.131.78-.088.8c-.051.533-.077,1.065-.088,1.585A17.916,17.916,0,0,0,353.913,182.24Z" transform="translate(-133.686 -92.424)" fill="#231f20" opacity="0.3"/>
    <path id="Path_302" data-name="Path 302" d="M376.62,147.165a4.159,4.159,0,0,1,.533-.943,5.822,5.822,0,0,1,.706-.8,5.548,5.548,0,0,1,.847-.666,3.2,3.2,0,0,1,1-.437c-.245.266-.485.533-.73.775s-.485.493-.735.73-.506.471-.772.7a7.592,7.592,0,0,1-.85.639Z" transform="translate(-150.844 -73.679)" fill="#231f20" opacity="0.3"/>
    <path id="Path_303" data-name="Path 303" d="M442.7,134.15a8.632,8.632,0,0,1,2.075.557,10.831,10.831,0,0,1,1.92,1,9.042,9.042,0,0,1,1.657,1.4,6.258,6.258,0,0,1,1.167,1.811,15.406,15.406,0,0,0-1.47-1.5c-.128-.117-.266-.216-.4-.33a4.657,4.657,0,0,0-.41-.317c-.141-.1-.266-.21-.418-.309l-.432-.288c-.578-.384-1.18-.73-1.8-1.065S443.347,134.459,442.7,134.15Z" transform="translate(-199.323 -66.218)" fill="#231f20" opacity="0.3"/>
    <path id="Path_304" data-name="Path 304" d="M357.669,80.551s-3.86-1.43-3.431.426c0,0,1.358,7.5,14.578,12.362l-.429-4.93Z" transform="translate(-134.4 -26.51)" fill="#202504"/>
    <path id="Path_305" data-name="Path 305" d="M357.669,80.551s-3.86-1.43-3.431.426c0,0,1.358,7.5,14.578,12.362l-.429-4.93Z" transform="translate(-134.4 -26.51)" fill="#2f2e41" opacity="0.3"/>
    <ellipse id="Ellipse_49" data-name="Ellipse 49" cx="2.87" cy="4.319" rx="2.87" ry="4.319" transform="translate(228.15 89.332) rotate(-55.13)" fill="#f9b499"/>
    <path id="Path_307" data-name="Path 307" d="M361.584,43.89a14.564,14.564,0,0,0,3.857,14.077l8.433,8.859a1.451,1.451,0,0,1,1.5-1.065,17.386,17.386,0,0,0-2.429-7.575l-3.561-5.767a10.868,10.868,0,0,1-.562-1.041,12.758,12.758,0,0,0-2.451-3.415A50.819,50.819,0,0,1,361.584,43.89Z" transform="translate(-139.458 0)" fill="#2f2e41"/>
    <path id="Path_308" data-name="Path 308" d="M362.92,43.89a42.241,42.241,0,0,0,1.414,4.262c.533,1.4,1.151,2.754,1.809,4.091.322.674.69,1.332,1.042,1.979s.743,1.292,1.156,1.912a36.906,36.906,0,0,0,2.592,3.615h0l2.288,3.276q1.14,1.641,2.259,3.3-1.2-1.6-2.384-3.2L370.754,59.9h0a36.808,36.808,0,0,1-2.664-3.633l-.306-.474c-.1-.16-.189-.322-.285-.485l-.562-.972c-.349-.663-.714-1.332-1.034-2a40.294,40.294,0,0,1-1.745-4.142A33.622,33.622,0,0,1,362.92,43.89Z" transform="translate(-140.793)" fill="#2f2e41" opacity="0.3"/>
    <ellipse id="Ellipse_51" data-name="Ellipse 51" cx="2.696" cy="4.914" rx="2.696" ry="4.914" transform="translate(232.724 67.443) rotate(-32.32)" fill="#c59444"/>
    <ellipse id="Ellipse_52" data-name="Ellipse 52" cx="2.696" cy="4.914" rx="2.696" ry="4.914" transform="translate(232.724 67.443) rotate(-32.32)" fill="#fff" opacity="0.3"/>
    <ellipse id="Ellipse_53" data-name="Ellipse 53" cx="1.452" cy="3.023" rx="1.452" ry="3.023" transform="translate(235.081 68.32) rotate(-30)" fill="#fff"/>
    <path id="Path_309" data-name="Path 309" d="M455.62,298.406s5.484-.87,7.81-1.346a4.959,4.959,0,0,1,2.046,4.43s-6.126,5.142-8.556,5.539C456.92,307.031,459.408,301.744,455.62,298.406Z" transform="translate(-208.802 -185.172)" fill="#2f2e41"/>
    <path id="Path_310" data-name="Path 310" d="M484.856,292.047s7.666-3.909,8.5-2.05l-6.425,6.659A6.465,6.465,0,0,0,484.856,292.047Z" transform="translate(-230.26 -180.132)" fill="#f9b499"/>
  </g>
</svg>
